<svg width="32" height="32" viewBox="0 0 32 32" fill="none" xmlns="http://www.w3.org/2000/svg">
<rect width="32" height="32" fill="#1A1725"/>
<g clip-path="url(#clip0_527_1874)">
<mask id="mask0_527_1874" style="mask-type:alpha" maskUnits="userSpaceOnUse" x="0" y="8" width="32" height="15">
<rect y="8.91833" width="31.9892" height="13.9565" fill="url(#paint0_linear_527_1874)"/>
</mask>
<g mask="url(#mask0_527_1874)">
<path d="M27.9798 10.7513L26.1718 10.1461L18.7255 10.1694L17.4365 9.70542L16.3458 10.1594L11.6853 10.1466L9.83868 9.29813H7.15359L6.73826 10.1464H4.39803L0 17.1646L4.89576 22.7022H27.104L31.9997 17.1646L27.9796 10.751L27.9798 10.7513ZM26.991 22.4512H5.00868L0.312401 17.1391L4.53702 10.3974H6.89501L7.31007 9.54918H9.78403L11.6301 10.3974L16.3955 10.4105L17.4428 9.97427L18.6819 10.4205L26.1312 10.3971L27.815 10.9607L31.6873 17.1385L26.991 22.4506V22.4512Z" fill="url(#paint1_linear_527_1874)"/>
</g>
<path d="M31.6876 17.1391L26.991 22.4509H5.00865L0.312378 17.1391L4.537 10.3974H6.89499L7.31004 9.54916H9.784L11.6304 10.3974L16.3955 10.4107L17.4428 9.97453L18.6819 10.4208L26.1312 10.3974L27.815 10.9612L31.6876 17.1391Z" fill="url(#paint2_linear_527_1874)"/>
<path d="M31.687 17.1391L27.8153 10.9612L26.1309 10.3977L18.6821 10.4205L17.4431 9.97425L16.3952 10.4105L11.6301 10.3977L9.78397 9.54944H7.31029L6.89523 10.3977H4.53752L0.312622 17.1391H3.13782L5.2672 18.7251H8.71581L9.23214 17.1391H11.4692L11.9833 14.8949H12.4935L13.1826 14.5941L13.0381 16.1171L14.9436 17.1391H31.687Z" fill="#4A357D"/>
<path d="M1.80865 16.3103H4.21547L4.62914 15.5151H3.56182L4.31702 14.1884L5.55441 13.7369L5.94533 12.9863L4.76758 13.3969L5.39433 12.2957L5.02505 11.7366H5.71283H6.59566L6.86117 11.2264H4.99481L1.80865 16.3103Z" fill="white"/>
<path d="M7.8261 10.3779L6.42889 13.2348L8.12296 14.2423L8.78771 14.5865L7.78171 15.134L7.07173 16.9881H5.93227L7.1508 14.1653L6.24051 13.6199L4.51953 17.1382L5.54024 17.8963H8.11575L9.39171 13.9752L7.64798 13.0135L8.58657 10.8394H9.42556L9.99653 11.0799L9.1889 11.4577L8.63762 12.8981L9.57732 13.4041L10.4363 10.7643L9.60229 10.3779H7.8261Z" fill="white"/>
<path d="M10.967 11.2264L9.50989 16.3102H10.8103L11.3246 14.0661H12.3212L13.5592 13.5259L13.7886 11.6593L12.8331 11.2264H10.9667H10.967ZM12.6381 12.3104L12.4383 13.4183H11.4734L11.8587 11.7363H12.7415L13.393 12.0018L12.6381 12.3101V12.3104Z" fill="white"/>
<path d="M14.333 11.2264L13.9135 15.6466L15.1509 16.3102H17.5577L17.2378 11.6593L16.1996 11.2264H14.3333H14.333ZM16.2171 12.7905L16.2482 15.5148H15.1809L15.3226 11.7363H16.2055L16.8838 12.0018L16.2174 12.7905H16.2171Z" fill="white"/>
<path d="M17.9495 11.6612L18.453 16.3102H19.7534L19.3813 14.0661H20.3779L20.8596 16.3102H22.1602L21.5768 14.1653L20.8113 13.8406L21.4028 13.5259L20.7772 11.2264H18.9108L17.9495 11.6612V11.6612ZM20.2392 13.4183H19.2743L19.0917 12.3162L18.3387 12.002L18.9954 11.7365H19.8782L20.2392 13.4186V13.4183Z" fill="white"/>
<path d="M21.2596 11.7365H22.1289L23.6801 16.3102H24.9807L23.386 12.289L22.4751 11.7304H24.0199L23.7963 11.2264H21.1112L21.2596 11.7365Z" fill="white"/>
<path d="M28.3699 13.4041L27.2727 11.6534L25.9964 11.2264H24.1301L25.0601 13.2348L27.7132 14.2423L28.4379 15.5151H27.3703L26.6681 14.1653L25.2382 13.6198L26.1765 15.6466L27.7843 16.3102H30.1911L28.7276 13.9751L26.0686 13.0135L25.696 12.2973L24.7169 11.7365H26.2869L26.9481 12.8981L28.3699 13.4041Z" fill="white"/>
<path d="M17.4866 10.6172C17.3504 10.7504 17.1961 10.8739 17.0266 10.9859C17.2119 11.0991 17.3881 11.2281 17.5526 11.3707C17.6922 11.2281 17.8459 11.0991 18.0113 10.9859C17.822 10.8739 17.6461 10.7504 17.4866 10.6172Z" fill="#E2D45C"/>
<path d="M3.27528 15.6819L4.05628 14.3096C3.76663 14.3427 3.47948 14.3766 3.19482 14.4119L2.10974 16.1434H4.11454L4.35453 15.6819H3.27528V15.6819Z" fill="url(#paint3_linear_527_1874)"/>
<path d="M8.87488 13.8806C8.5647 13.9009 8.25646 13.9226 7.95017 13.9457L8.20375 14.0964L9.03691 14.5276L9.19062 14.0547L8.87488 13.8806V13.8806ZM7.91493 15.251L7.18637 17.1548H5.67902L6.94027 14.2334L6.63675 14.0516C6.48915 14.0644 6.34183 14.0775 6.19534 14.0911L4.73016 17.0867L5.59523 17.7295H7.99484L8.99197 14.6652L7.91493 15.251V15.251Z" fill="url(#paint4_linear_527_1874)"/>
<path d="M12.7661 13.6902L12.2869 13.8993H11.1924L10.6781 16.1434H9.73114L10.4056 13.79C11.1819 13.7491 11.969 13.7158 12.7661 13.6902Z" fill="url(#paint5_linear_527_1874)"/>
<path d="M17.3794 16.1434H15.1928L14.0897 15.5521L14.2703 13.6507C14.5408 13.6452 14.8122 13.6407 15.0846 13.6371L15.0081 15.6819H16.4166L16.3933 13.6263C16.5179 13.626 16.6428 13.6257 16.7679 13.6257C16.9144 13.6257 17.0606 13.626 17.2062 13.6265L17.3794 16.1434V16.1434Z" fill="url(#paint6_linear_527_1874)"/>
<path d="M21.9424 16.1434H20.9941L20.5125 13.8992H19.1849L19.557 16.1434H18.6023L18.3307 13.6354C19.143 13.6454 19.9468 13.6635 20.7408 13.6891L20.4243 13.8575L21.4375 14.2874L21.9424 16.1434V16.1434Z" fill="url(#paint7_linear_527_1874)"/>
<path d="M23.8172 13.8281C23.5459 13.8122 23.2731 13.7972 22.999 13.7833L23.7994 16.1434H24.7355L23.8172 13.8281Z" fill="url(#paint8_linear_527_1874)"/>
<path d="M28.6866 14.2232C28.4083 14.194 28.1281 14.1656 27.8457 14.1384L28.7246 15.6819H27.2694L26.5497 14.2988L25.6333 13.9491C25.6128 13.9474 25.5926 13.946 25.572 13.9446L26.3003 15.5174L27.8171 16.1435H29.8901L28.6866 14.2232V14.2232Z" fill="url(#paint9_linear_527_1874)"/>
<path fill-rule="evenodd" clip-rule="evenodd" d="M13.2613 20.0513V19.7082L12.3155 20.0607H12.3135V20.4127H12.3155L13.2613 20.7652V20.4216L12.7766 20.2359L13.2613 20.0513V20.0513Z" fill="#996DFF"/>
<path fill-rule="evenodd" clip-rule="evenodd" d="M18.7397 20.7474V20.4044L19.2242 20.2198L18.7397 20.0351V19.6921L19.6842 20.0443H19.6864V20.3966H19.6842L18.7397 20.7472V20.7474ZM18.3341 19.2075L17.7787 20.994H18.1086L18.664 19.2075H18.3341Z" fill="#996DFF"/>
<path fill-rule="evenodd" clip-rule="evenodd" d="M14.651 19.6434C14.7448 19.7468 14.7942 19.8831 14.7884 20.0226V20.7836H14.4585V20.0924C14.4624 20.0154 14.4377 19.9398 14.3897 19.8797C14.3439 19.8263 14.2762 19.7969 14.206 19.7999C13.9996 19.7999 13.8961 19.9434 13.8961 20.2306V20.7838H13.5662V19.5344H13.8961V19.6473C14.0007 19.5453 14.1427 19.4911 14.2887 19.4972C14.4246 19.4913 14.5567 19.5447 14.6507 19.6434H14.651Z" fill="white"/>
<path fill-rule="evenodd" clip-rule="evenodd" d="M15.2081 19.0148V20.8014H15.538V19.0148H15.2081Z" fill="white"/>
<path fill-rule="evenodd" clip-rule="evenodd" d="M17.4019 20.736H17.1266L16.857 20.0001L16.5848 20.736H16.3101L15.8479 19.4844H16.2003L16.4599 20.2328L16.7277 19.4844H16.9849L17.2526 20.2353L17.5123 19.4844H17.8646L17.4019 20.736V20.736Z" fill="white"/>
<path d="M1.34481 9.917C1.71825 9.01316 2.47234 8.30088 3.58544 7.80017C4.65193 7.32031 6.00335 7.05341 7.6017 7.00726C10.8783 6.91246 14.8338 7.75263 18.7388 9.37375C19.0196 9.49024 19.2979 9.60979 19.5731 9.73239L19.1838 9.73351C19.0168 9.66094 18.8484 9.58949 18.6786 9.51915C10.678 6.19851 2.96702 6.40396 1.48991 9.97733C1.06209 11.0121 1.20331 12.2173 1.81424 13.4884C3.31216 16.6072 7.63666 20.1216 13.3209 22.4809C13.8708 22.7092 14.4212 22.9216 14.9709 23.1181C18.3055 24.3114 21.599 24.9161 24.3934 24.8352C25.9712 24.7896 27.3021 24.5274 28.3497 24.0562C29.4254 23.5724 30.152 22.8882 30.5096 22.0227C30.8323 21.2418 30.8312 20.3638 30.5485 19.4336L30.6691 19.297C31.0004 20.3224 30.996 21.2585 30.655 22.0831C30.2813 22.9869 29.5275 23.6992 28.4141 24.1999C27.3476 24.6798 25.9964 24.9467 24.3981 24.9928C24.2311 24.9975 24.0624 25 23.892 25C21.0752 25 17.8033 24.342 14.5114 23.1181C14.0944 22.9633 13.6774 22.7992 13.2607 22.6263C9.3557 21.0055 5.9659 18.7972 3.71583 16.4082C2.83107 15.4687 2.16077 14.5418 1.71658 13.6441C1.60949 13.4281 1.51571 13.214 1.43525 13.0019C1.00161 11.859 0.971091 10.8211 1.34481 9.917V9.917Z" fill="url(#paint10_linear_527_1874)"/>
<path d="M1.34481 9.917C1.71825 9.01316 2.47234 8.30088 3.58544 7.80017C4.65193 7.32031 6.00335 7.05341 7.6017 7.00726C10.8783 6.91246 14.8338 7.75263 18.7388 9.37375C19.0196 9.49024 19.2979 9.60979 19.5731 9.73239L19.1838 9.73351C19.0168 9.66094 18.8484 9.58949 18.6786 9.51915C10.678 6.19851 2.96702 6.40396 1.48991 9.97733C1.06209 11.0121 1.20331 12.2173 1.81424 13.4884C3.31216 16.6072 7.63666 20.1216 13.3209 22.4809C13.8708 22.7092 14.4212 22.9216 14.9709 23.1181C18.3055 24.3114 21.599 24.9161 24.3934 24.8352C25.9712 24.7896 27.3021 24.5274 28.3497 24.0562C29.4254 23.5724 30.152 22.8882 30.5096 22.0227C30.8323 21.2418 30.8312 20.3638 30.5485 19.4336L30.6691 19.297C31.0004 20.3224 30.996 21.2585 30.655 22.0831C30.2813 22.9869 29.5275 23.6992 28.4141 24.1999C27.3476 24.6798 25.9964 24.9467 24.3981 24.9928C24.2311 24.9975 24.0624 25 23.892 25C21.0752 25 17.8033 24.342 14.5114 23.1181C14.0944 22.9633 13.6774 22.7992 13.2607 22.6263C9.3557 21.0055 5.9659 18.7972 3.71583 16.4082C2.83107 15.4687 2.16077 14.5418 1.71658 13.6441C1.60949 13.4281 1.51571 13.214 1.43525 13.0019C1.00161 11.859 0.971091 10.8211 1.34481 9.917V9.917Z" fill="url(#paint11_radial_527_1874)"/>
<path d="M1.34481 9.917C1.71825 9.01316 2.47234 8.30088 3.58544 7.80017C4.65193 7.32031 6.00335 7.05341 7.6017 7.00726C10.8783 6.91246 14.8338 7.75263 18.7388 9.37375C19.0196 9.49024 19.2979 9.60979 19.5731 9.73239L19.1838 9.73351C19.0168 9.66094 18.8484 9.58949 18.6786 9.51915C10.678 6.19851 2.96702 6.40396 1.48991 9.97733C1.06209 11.0121 1.20331 12.2173 1.81424 13.4884C3.31216 16.6072 7.63666 20.1216 13.3209 22.4809C13.8708 22.7092 14.4212 22.9216 14.9709 23.1181C18.3055 24.3114 21.599 24.9161 24.3934 24.8352C25.9712 24.7896 27.3021 24.5274 28.3497 24.0562C29.4254 23.5724 30.152 22.8882 30.5096 22.0227C30.8323 21.2418 30.8312 20.3638 30.5485 19.4336L30.6691 19.297C31.0004 20.3224 30.996 21.2585 30.655 22.0831C30.2813 22.9869 29.5275 23.6992 28.4141 24.1999C27.3476 24.6798 25.9964 24.9467 24.3981 24.9928C24.2311 24.9975 24.0624 25 23.892 25C21.0752 25 17.8033 24.342 14.5114 23.1181C14.0944 22.9633 13.6774 22.7992 13.2607 22.6263C9.3557 21.0055 5.9659 18.7972 3.71583 16.4082C2.83107 15.4687 2.16077 14.5418 1.71658 13.6441C1.60949 13.4281 1.51571 13.214 1.43525 13.0019C1.00161 11.859 0.971091 10.8211 1.34481 9.917V9.917Z" fill="url(#paint12_radial_527_1874)"/>
<path d="M1.34481 9.917C1.71825 9.01316 2.47234 8.30088 3.58544 7.80017C4.65193 7.32031 6.00335 7.05341 7.6017 7.00726C10.8783 6.91246 14.8338 7.75263 18.7388 9.37375C19.0196 9.49024 19.2979 9.60979 19.5731 9.73239L19.1838 9.73351C19.0168 9.66094 18.8484 9.58949 18.6786 9.51915C10.678 6.19851 2.96702 6.40396 1.48991 9.97733C1.06209 11.0121 1.20331 12.2173 1.81424 13.4884C3.31216 16.6072 7.63666 20.1216 13.3209 22.4809C13.8708 22.7092 14.4212 22.9216 14.9709 23.1181C18.3055 24.3114 21.599 24.9161 24.3934 24.8352C25.9712 24.7896 27.3021 24.5274 28.3497 24.0562C29.4254 23.5724 30.152 22.8882 30.5096 22.0227C30.8323 21.2418 30.8312 20.3638 30.5485 19.4336L30.6691 19.297C31.0004 20.3224 30.996 21.2585 30.655 22.0831C30.2813 22.9869 29.5275 23.6992 28.4141 24.1999C27.3476 24.6798 25.9964 24.9467 24.3981 24.9928C24.2311 24.9975 24.0624 25 23.892 25C21.0752 25 17.8033 24.342 14.5114 23.1181C14.0944 22.9633 13.6774 22.7992 13.2607 22.6263C9.3557 21.0055 5.9659 18.7972 3.71583 16.4082C2.83107 15.4687 2.16077 14.5418 1.71658 13.6441C1.60949 13.4281 1.51571 13.214 1.43525 13.0019C1.00161 11.859 0.971091 10.8211 1.34481 9.917V9.917Z" fill="url(#paint13_radial_527_1874)"/>
<path d="M30.655 9.917C30.2815 9.01316 29.5274 8.30088 28.4143 7.80017C27.3479 7.32031 25.9964 7.05341 24.3981 7.00726C21.1215 6.91246 17.166 7.75263 13.261 9.37375C12.9802 9.49024 12.7019 9.60979 12.4267 9.73239L12.8159 9.73351C12.983 9.66094 13.1514 9.58949 13.3212 9.51915C21.3218 6.19851 29.0328 6.40396 30.5099 9.97733C30.9377 11.0121 30.7965 12.2173 30.1855 13.4884C28.6876 16.6072 24.3631 20.1216 18.6789 22.4809C18.129 22.7092 17.5785 22.9216 17.0289 23.1181C13.6943 24.3114 10.4008 24.9161 7.6064 24.8352C6.02858 24.7896 4.69768 24.5274 3.65006 24.0562C2.57441 23.5724 1.84779 22.8882 1.49017 22.0227C1.1675 21.2418 1.16861 20.3638 1.45132 19.4336L1.33064 19.297C0.999369 20.3224 1.00381 21.2585 1.34479 22.0831C1.7185 22.9869 2.47231 23.6992 3.58569 24.1999C4.65218 24.6798 6.00333 24.9467 7.60168 24.9928C7.7687 24.9975 7.93739 25 8.10774 25C10.9246 25 14.1965 24.342 17.4884 23.1181C17.9054 22.9633 18.3224 22.7992 18.7391 22.6263C22.6441 21.0055 26.0339 18.7972 28.2839 16.4082C29.1687 15.4687 29.839 14.5418 30.2832 13.6441C30.3903 13.4281 30.4841 13.214 30.5645 13.0019C30.9982 11.859 31.0287 10.8211 30.655 9.917V9.917Z" fill="url(#paint14_linear_527_1874)"/>
<path d="M30.655 9.917C30.2815 9.01316 29.5274 8.30088 28.4143 7.80017C27.3479 7.32031 25.9964 7.05341 24.3981 7.00726C21.1215 6.91246 17.166 7.75263 13.261 9.37375C12.9802 9.49024 12.7019 9.60979 12.4267 9.73239L12.8159 9.73351C12.983 9.66094 13.1514 9.58949 13.3212 9.51915C21.3218 6.19851 29.0328 6.40396 30.5099 9.97733C30.9377 11.0121 30.7965 12.2173 30.1855 13.4884C28.6876 16.6072 24.3631 20.1216 18.6789 22.4809C18.129 22.7092 17.5785 22.9216 17.0289 23.1181C13.6943 24.3114 10.4008 24.9161 7.6064 24.8352C6.02858 24.7896 4.69768 24.5274 3.65006 24.0562C2.57441 23.5724 1.84779 22.8882 1.49017 22.0227C1.1675 21.2418 1.16861 20.3638 1.45132 19.4336L1.33064 19.297C0.999369 20.3224 1.00381 21.2585 1.34479 22.0831C1.7185 22.9869 2.47231 23.6992 3.58569 24.1999C4.65218 24.6798 6.00333 24.9467 7.60168 24.9928C7.7687 24.9975 7.93739 25 8.10774 25C10.9246 25 14.1965 24.342 17.4884 23.1181C17.9054 22.9633 18.3224 22.7992 18.7391 22.6263C22.6441 21.0055 26.0339 18.7972 28.2839 16.4082C29.1687 15.4687 29.839 14.5418 30.2832 13.6441C30.3903 13.4281 30.4841 13.214 30.5645 13.0019C30.9982 11.859 31.0287 10.8211 30.655 9.917V9.917Z" fill="url(#paint15_radial_527_1874)"/>
<path d="M30.655 9.917C30.2815 9.01316 29.5274 8.30088 28.4143 7.80017C27.3479 7.32031 25.9964 7.05341 24.3981 7.00726C21.1215 6.91246 17.166 7.75263 13.261 9.37375C12.9802 9.49024 12.7019 9.60979 12.4267 9.73239L12.8159 9.73351C12.983 9.66094 13.1514 9.58949 13.3212 9.51915C21.3218 6.19851 29.0328 6.40396 30.5099 9.97733C30.9377 11.0121 30.7965 12.2173 30.1855 13.4884C28.6876 16.6072 24.3631 20.1216 18.6789 22.4809C18.129 22.7092 17.5785 22.9216 17.0289 23.1181C13.6943 24.3114 10.4008 24.9161 7.6064 24.8352C6.02858 24.7896 4.69768 24.5274 3.65006 24.0562C2.57441 23.5724 1.84779 22.8882 1.49017 22.0227C1.1675 21.2418 1.16861 20.3638 1.45132 19.4336L1.33064 19.297C0.999369 20.3224 1.00381 21.2585 1.34479 22.0831C1.7185 22.9869 2.47231 23.6992 3.58569 24.1999C4.65218 24.6798 6.00333 24.9467 7.60168 24.9928C7.7687 24.9975 7.93739 25 8.10774 25C10.9246 25 14.1965 24.342 17.4884 23.1181C17.9054 22.9633 18.3224 22.7992 18.7391 22.6263C22.6441 21.0055 26.0339 18.7972 28.2839 16.4082C29.1687 15.4687 29.839 14.5418 30.2832 13.6441C30.3903 13.4281 30.4841 13.214 30.5645 13.0019C30.9982 11.859 31.0287 10.8211 30.655 9.917V9.917Z" fill="url(#paint16_radial_527_1874)"/>
</g>
<defs>
<linearGradient id="paint0_linear_527_1874" x1="15.9946" y1="15.4101" x2="15.9946" y2="22.2493" gradientUnits="userSpaceOnUse">
<stop stop-color="#D9D9D9"/>
<stop offset="1" stop-color="#D9D9D9" stop-opacity="0"/>
</linearGradient>
<linearGradient id="paint1_linear_527_1874" x1="0" y1="16" x2="32" y2="16" gradientUnits="userSpaceOnUse">
<stop stop-color="#996DFF"/>
<stop offset="0.5" stop-color="#35E8B3"/>
<stop offset="1" stop-color="#E2D45C"/>
</linearGradient>
<linearGradient id="paint2_linear_527_1874" x1="15.9998" y1="17.3401" x2="15.9998" y2="22.3188" gradientUnits="userSpaceOnUse">
<stop stop-color="#28203E"/>
<stop offset="1" stop-color="#121214" stop-opacity="0"/>
</linearGradient>
<linearGradient id="paint3_linear_527_1874" x1="3.23228" y1="13.8642" x2="3.23228" y2="15.8262" gradientUnits="userSpaceOnUse">
<stop stop-color="#A9A9AD"/>
<stop offset="1" stop-color="#A9A9AD" stop-opacity="0"/>
</linearGradient>
<linearGradient id="paint4_linear_527_1874" x1="6.96053" y1="13.8642" x2="6.96053" y2="15.8262" gradientUnits="userSpaceOnUse">
<stop stop-color="#A9A9AD"/>
<stop offset="1" stop-color="#A9A9AD" stop-opacity="0"/>
</linearGradient>
<linearGradient id="paint5_linear_527_1874" x1="11.2488" y1="13.8642" x2="11.2488" y2="15.8262" gradientUnits="userSpaceOnUse">
<stop stop-color="#A9A9AD"/>
<stop offset="1" stop-color="#A9A9AD" stop-opacity="0"/>
</linearGradient>
<linearGradient id="paint6_linear_527_1874" x1="15.7347" y1="13.8642" x2="15.7347" y2="15.8262" gradientUnits="userSpaceOnUse">
<stop stop-color="#A9A9AD"/>
<stop offset="1" stop-color="#A9A9AD" stop-opacity="0"/>
</linearGradient>
<linearGradient id="paint7_linear_527_1874" x1="20.1366" y1="13.8642" x2="20.1366" y2="15.8262" gradientUnits="userSpaceOnUse">
<stop stop-color="#A9A9AD"/>
<stop offset="1" stop-color="#A9A9AD" stop-opacity="0"/>
</linearGradient>
<linearGradient id="paint8_linear_527_1874" x1="23.8674" y1="13.8642" x2="23.8674" y2="15.8262" gradientUnits="userSpaceOnUse">
<stop stop-color="#A9A9AD"/>
<stop offset="1" stop-color="#A9A9AD" stop-opacity="0"/>
</linearGradient>
<linearGradient id="paint9_linear_527_1874" x1="27.7311" y1="13.8643" x2="27.7311" y2="15.8262" gradientUnits="userSpaceOnUse">
<stop stop-color="#A9A9AD"/>
<stop offset="1" stop-color="#A9A9AD" stop-opacity="0"/>
</linearGradient>
<linearGradient id="paint10_linear_527_1874" x1="29.0344" y1="19.8862" x2="7.42163" y2="19.9969" gradientUnits="userSpaceOnUse">
<stop stop-color="#996DFF"/>
<stop offset="0.5" stop-color="#35E8B3"/>
<stop offset="1" stop-color="#E2D45C"/>
</linearGradient>
<radialGradient id="paint11_radial_527_1874" cx="0" cy="0" r="1" gradientUnits="userSpaceOnUse" gradientTransform="translate(15.8025 23.4489) rotate(15.7921) scale(14.5308 24.1723)">
<stop stop-color="#171226"/>
<stop offset="1" stop-color="#171226" stop-opacity="0"/>
</radialGradient>
<radialGradient id="paint12_radial_527_1874" cx="0" cy="0" r="1" gradientUnits="userSpaceOnUse" gradientTransform="translate(19.5278 9.81253) rotate(-156.994) scale(3.27098 5.43954)">
<stop stop-color="#261945"/>
<stop offset="1" stop-color="#261945" stop-opacity="0"/>
</radialGradient>
<radialGradient id="paint13_radial_527_1874" cx="0" cy="0" r="1" gradientUnits="userSpaceOnUse" gradientTransform="translate(30.7035 19.0682) rotate(76.7558) scale(3.71238 6.15329)">
<stop stop-color="#191326"/>
<stop offset="1" stop-color="#191326" stop-opacity="0"/>
</radialGradient>
<linearGradient id="paint14_linear_527_1874" x1="16.8231" y1="8.99435" x2="21.6713" y2="21.2602" gradientUnits="userSpaceOnUse">
<stop stop-color="#996DFF"/>
<stop offset="0.5" stop-color="#35E8B3"/>
<stop offset="1" stop-color="#E2D45C"/>
</linearGradient>
<radialGradient id="paint15_radial_527_1874" cx="0" cy="0" r="1" gradientUnits="userSpaceOnUse" gradientTransform="translate(12.1283 10.0853) rotate(-19.3894) scale(7.39351 12.2974)">
<stop stop-color="#171225"/>
<stop offset="1" stop-color="#171225" stop-opacity="0"/>
</radialGradient>
<radialGradient id="paint16_radial_527_1874" cx="0" cy="0" r="1" gradientUnits="userSpaceOnUse" gradientTransform="translate(1.34381 19.2387) rotate(67.5126) scale(4.98101 8.25928)">
<stop stop-color="#191327"/>
<stop offset="1" stop-color="#191327" stop-opacity="0"/>
</radialGradient>
<clipPath id="clip0_527_1874">
<rect width="32" height="18" fill="white" transform="translate(0 7)"/>
</clipPath>
</defs>
</svg>
